<svg class="h-full w-full text-cyan-300 dark:text-cyan-100" viewBox="0 0 696 316" fill="none" preserveAspectRatio="xMidYMid slice" aria-hidden="true"><path d="M-380 -189C-380 -189 -312 216 152 343C616 470 684 875 684 875" stroke="currentColor" stroke-width="0.5" stroke-opacity="0.08" opacity="0.45" pathLength="1" stroke-dashoffset="0px" stroke-dasharray="0.35px 1px"></path><path d="M-375 -195C-375 -195 -307 210 147 337C611 464 679 869 679 869" stroke="currentColor" stroke-width="0.535" stroke-opacity="0.092" opacity="0.45" pathLength="1" stroke-dashoffset="0px" stroke-dasharray="0.35px 1px"></path><path d="M-370 -201C-370 -201 -302 204 142 331C606 458 674 863 674 863" stroke="currentColor" stroke-width="0.5700000000000001" stroke-opacity="0.10400000000000001" opacity="0.45" pathLength="1" stroke-dashoffset="0px" stroke-dasharray="0.35px 1px"></path><path d="M-365 -207C-365 -207 -297 198 137 325C601 452 669 857 669 857" stroke="currentColor" stroke-width="0.605" stroke-opacity="0.116" opacity="0.45" pathLength="1" stroke-dashoffset="0px" stroke-dasharray="0.35px 1px"></path><path d="M-360 -213C-360 -213 -292 192 132 319C596 446 664 851 664 851" stroke="currentColor" stroke-width="0.64" stroke-opacity="0.128" opacity="0.45" pathLength="1" stroke-dashoffset="0px" stroke-dasharray="0.35px 1px"></path><path d="M-355 -219C-355 -219 -287 186 127 313C591 440 659 845 659 845" stroke="currentColor" stroke-width="0.675" stroke-opacity="0.14" opacity="0.45" pathLength="1" stroke-dashoffset="0px" stroke-dasharray="0.35px 1px"></path><path d="M-350 -225C-350 -225 -282 180 122 307C586 434 654 839 654 839" stroke="currentColor" stroke-width="0.71" stroke-opacity="0.15200000000000002" opacity="0.45" pathLength="1" stroke-dashoffset="0px" stroke-dasharray="0.35px 1px"></path><path d="M-345 -231C-345 -231 -277 174 117 301C581 428 649 833 649 833" stroke="currentColor" stroke-width="0.745" stroke-opacity="0.164" opacity="0.45" pathLength="1" stroke-dashoffset="0px" stroke-dasharray="0.35px 1px"></path><path d="M-340 -237C-340 -237 -272 168 112 295C576 422 644 827 644 827" stroke="currentColor" stroke-width="0.78" stroke-opacity="0.176" opacity="0.45" pathLength="1" stroke-dashoffset="0px" stroke-dasharray="0.35px 1px"></path><path d="M-335 -243C-335 -243 -267 162 107 289C571 416 639 821 639 821" stroke="currentColor" stroke-width="0.8150000000000001" stroke-opacity="0.188" opacity="0.45" pathLength="1" stroke-dashoffset="0px" stroke-dasharray="0.35px 1px"></path><path d="M-330 -249C-330 -249 -262 156 102 283C566 410 634 815 634 815" stroke="currentColor" stroke-width="0.8500000000000001" stroke-opacity="0.2" opacity="0.45" pathLength="1" stroke-dashoffset="0px" stroke-dasharray="0.35px 1px"></path><path d="M-325 -255C-325 -255 -257 150 97 277C561 404 629 809 629 809" stroke="currentColor" stroke-width="0.885" stroke-opacity="0.21200000000000002" opacity="0.45" pathLength="1" stroke-dashoffset="0px" stroke-dasharray="0.35px 1px"></path><path d="M-320 -261C-320 -261 -252 144 92 271C556 398 624 803 624 803" stroke="currentColor" stroke-width="0.92" stroke-opacity="0.22400000000000003" opacity="0.45" pathLength="1" stroke-dashoffset="0px" stroke-dasharray="0.35px 1px"></path><path d="M-315 -267C-315 -267 -247 138 87 265C551 392 619 797 619 797" stroke="currentColor" stroke-width="0.9550000000000001" stroke-opacity="0.236" opacity="0.45" pathLength="1" stroke-dashoffset="0px" stroke-dasharray="0.35px 1px"></path><path d="M-310 -273C-310 -273 -242 132 82 259C546 386 614 791 614 791" stroke="currentColor" stroke-width="0.99" stroke-opacity="0.248" opacity="0.45" pathLength="1" stroke-dashoffset="0px" stroke-dasharray="0.35px 1px"></path><path d="M-305 -279C-305 -279 -237 126 77 253C541 380 609 785 609 785" stroke="currentColor" stroke-width="1.025" stroke-opacity="0.26" opacity="0.45" pathLength="1" stroke-dashoffset="0px" stroke-dasharray="0.35px 1px"></path><path d="M-300 -285C-300 -285 -232 120 72 247C536 374 604 779 604 779" stroke="currentColor" stroke-width="1.06" stroke-opacity="0.272" opacity="0.45" pathLength="1" stroke-dashoffset="0px" stroke-dasharray="0.35px 1px"></path><path d="M-295 -291C-295 -291 -227 114 67 241C531 368 599 773 599 773" stroke="currentColor" stroke-width="1.0950000000000002" stroke-opacity="0.28400000000000003" opacity="0.45" pathLength="1" stroke-dashoffset="0px" stroke-dasharray="0.35px 1px"></path><path d="M-290 -297C-290 -297 -222 108 62 235C526 362 594 767 594 767" stroke="currentColor" stroke-width="1.1300000000000001" stroke-opacity="0.296" opacity="0.45" pathLength="1" stroke-dashoffset="0px" stroke-dasharray="0.35px 1px"></path><path d="M-285 -303C-285 -303 -217 102 57 229C521 356 589 761 589 761" stroke="currentColor" stroke-width="1.165" stroke-opacity="0.308" opacity="0.45" pathLength="1" stroke-dashoffset="0px" stroke-dasharray="0.35px 1px"></path><path d="M-280 -309C-280 -309 -212 96 52 223C516 350 584 755 584 755" stroke="currentColor" stroke-width="1.2000000000000002" stroke-opacity="0.32" opacity="0.45" pathLength="1" stroke-dashoffset="0px" stroke-dasharray="0.35px 1px"></path><path d="M-275 -315C-275 -315 -207 90 47 217C511 344 579 749 579 749" stroke="currentColor" stroke-width="1.235" stroke-opacity="0.332" opacity="0.45" pathLength="1" stroke-dashoffset="0px" stroke-dasharray="0.35px 1px"></path><path d="M-270 -321C-270 -321 -202 84 42 211C506 338 574 743 574 743" stroke="currentColor" stroke-width="1.27" stroke-opacity="0.34400000000000003" opacity="0.45" pathLength="1" stroke-dashoffset="0px" stroke-dasharray="0.35px 1px"></path><path d="M-265 -327C-265 -327 -197 78 37 205C501 332 569 737 569 737" stroke="currentColor" stroke-width="1.3050000000000002" stroke-opacity="0.35600000000000004" opacity="0.45" pathLength="1" stroke-dashoffset="0px" stroke-dasharray="0.35px 1px"></path><path d="M-260 -333C-260 -333 -192 72 32 199C496 326 564 731 564 731" stroke="currentColor" stroke-width="1.34" stroke-opacity="0.36800000000000005" opacity="0.45" pathLength="1" stroke-dashoffset="0px" stroke-dasharray="0.35px 1px"></path><path d="M-255 -339C-255 -339 -187 66 27 193C491 320 559 725 559 725" stroke="currentColor" stroke-width="1.375" stroke-opacity="0.38" opacity="0.45" pathLength="1" stroke-dashoffset="0px" stroke-dasharray="0.35px 1px"></path><path d="M-250 -345C-250 -345 -182 60 22 187C486 314 554 719 554 719" stroke="currentColor" stroke-width="1.4100000000000001" stroke-opacity="0.392" opacity="0.45" pathLength="1" stroke-dashoffset="0px" stroke-dasharray="0.35px 1px"></path><path d="M-245 -351C-245 -351 -177 54 17 181C481 308 549 713 549 713" stroke="currentColor" stroke-width="1.445" stroke-opacity="0.404" opacity="0.45" pathLength="1" stroke-dashoffset="0px" stroke-dasharray="0.35px 1px"></path></svg>