<svg class="h-full w-full text-cyan-300 dark:text-cyan-100" viewBox="0 0 696 316" fill="none" preserveAspectRatio="xMidYMid slice" aria-hidden="true"><path d="M-380 -189C-380 -189 -312 216 152 343C616 470 684 875 684 875" stroke="currentColor" stroke-width="0.5" stroke-opacity="0.08" opacity="0.45" pathLength="1" stroke-dashoffset="0px" stroke-dasharray="0.35px 1px"></path><path d="M-385 -195C-385 -195 -317 210 157 337C621 464 689 869 689 869" stroke="currentColor" stroke-width="0.535" stroke-opacity="0.092" opacity="0.45" pathLength="1" stroke-dashoffset="0px" stroke-dasharray="0.35px 1px"></path><path d="M-390 -201C-390 -201 -322 204 162 331C626 458 694 863 694 863" stroke="currentColor" stroke-width="0.5700000000000001" stroke-opacity="0.10400000000000001" opacity="0.45" pathLength="1" stroke-dashoffset="0px" stroke-dasharray="0.35px 1px"></path><path d="M-395 -207C-395 -207 -327 198 167 325C631 452 699 857 699 857" stroke="currentColor" stroke-width="0.605" stroke-opacity="0.116" opacity="0.45" pathLength="1" stroke-dashoffset="0px" stroke-dasharray="0.35px 1px"></path><path d="M-400 -213C-400 -213 -332 192 172 319C636 446 704 851 704 851" stroke="currentColor" stroke-width="0.64" stroke-opacity="0.128" opacity="0.45" pathLength="1" stroke-dashoffset="0px" stroke-dasharray="0.35px 1px"></path><path d="M-405 -219C-405 -219 -337 186 177 313C641 440 709 845 709 845" stroke="currentColor" stroke-width="0.675" stroke-opacity="0.14" opacity="0.45" pathLength="1" stroke-dashoffset="0px" stroke-dasharray="0.35px 1px"></path><path d="M-410 -225C-410 -225 -342 180 182 307C646 434 714 839 714 839" stroke="currentColor" stroke-width="0.71" stroke-opacity="0.15200000000000002" opacity="0.45" pathLength="1" stroke-dashoffset="0px" stroke-dasharray="0.35px 1px"></path><path d="M-415 -231C-415 -231 -347 174 187 301C651 428 719 833 719 833" stroke="currentColor" stroke-width="0.745" stroke-opacity="0.164" opacity="0.45" pathLength="1" stroke-dashoffset="0px" stroke-dasharray="0.35px 1px"></path><path d="M-420 -237C-420 -237 -352 168 192 295C656 422 724 827 724 827" stroke="currentColor" stroke-width="0.78" stroke-opacity="0.176" opacity="0.45" pathLength="1" stroke-dashoffset="0px" stroke-dasharray="0.35px 1px"></path><path d="M-425 -243C-425 -243 -357 162 197 289C661 416 729 821 729 821" stroke="currentColor" stroke-width="0.8150000000000001" stroke-opacity="0.188" opacity="0.45" pathLength="1" stroke-dashoffset="0px" stroke-dasharray="0.35px 1px"></path><path d="M-430 -249C-430 -249 -362 156 202 283C666 410 734 815 734 815" stroke="currentColor" stroke-width="0.8500000000000001" stroke-opacity="0.2" opacity="0.45" pathLength="1" stroke-dashoffset="0px" stroke-dasharray="0.35px 1px"></path><path d="M-435 -255C-435 -255 -367 150 207 277C671 404 739 809 739 809" stroke="currentColor" stroke-width="0.885" stroke-opacity="0.21200000000000002" opacity="0.45" pathLength="1" stroke-dashoffset="0px" stroke-dasharray="0.35px 1px"></path><path d="M-440 -261C-440 -261 -372 144 212 271C676 398 744 803 744 803" stroke="currentColor" stroke-width="0.92" stroke-opacity="0.22400000000000003" opacity="0.45" pathLength="1" stroke-dashoffset="0px" stroke-dasharray="0.35px 1px"></path><path d="M-445 -267C-445 -267 -377 138 217 265C681 392 749 797 749 797" stroke="currentColor" stroke-width="0.9550000000000001" stroke-opacity="0.236" opacity="0.45" pathLength="1" stroke-dashoffset="0px" stroke-dasharray="0.35px 1px"></path><path d="M-450 -273C-450 -273 -382 132 222 259C686 386 754 791 754 791" stroke="currentColor" stroke-width="0.99" stroke-opacity="0.248" opacity="0.45" pathLength="1" stroke-dashoffset="0px" stroke-dasharray="0.35px 1px"></path><path d="M-455 -279C-455 -279 -387 126 227 253C691 380 759 785 759 785" stroke="currentColor" stroke-width="1.025" stroke-opacity="0.26" opacity="0.45" pathLength="1" stroke-dashoffset="0px" stroke-dasharray="0.35px 1px"></path><path d="M-460 -285C-460 -285 -392 120 232 247C696 374 764 779 764 779" stroke="currentColor" stroke-width="1.06" stroke-opacity="0.272" opacity="0.45" pathLength="1" stroke-dashoffset="0px" stroke-dasharray="0.35px 1px"></path><path d="M-465 -291C-465 -291 -397 114 237 241C701 368 769 773 769 773" stroke="currentColor" stroke-width="1.0950000000000002" stroke-opacity="0.28400000000000003" opacity="0.45" pathLength="1" stroke-dashoffset="0px" stroke-dasharray="0.35px 1px"></path><path d="M-470 -297C-470 -297 -402 108 242 235C706 362 774 767 774 767" stroke="currentColor" stroke-width="1.1300000000000001" stroke-opacity="0.296" opacity="0.45" pathLength="1" stroke-dashoffset="0px" stroke-dasharray="0.35px 1px"></path><path d="M-475 -303C-475 -303 -407 102 247 229C711 356 779 761 779 761" stroke="currentColor" stroke-width="1.165" stroke-opacity="0.308" opacity="0.45" pathLength="1" stroke-dashoffset="0px" stroke-dasharray="0.35px 1px"></path><path d="M-480 -309C-480 -309 -412 96 252 223C716 350 784 755 784 755" stroke="currentColor" stroke-width="1.2000000000000002" stroke-opacity="0.32" opacity="0.45" pathLength="1" stroke-dashoffset="0px" stroke-dasharray="0.35px 1px"></path><path d="M-485 -315C-485 -315 -417 90 257 217C721 344 789 749 789 749" stroke="currentColor" stroke-width="1.235" stroke-opacity="0.332" opacity="0.45" pathLength="1" stroke-dashoffset="0px" stroke-dasharray="0.35px 1px"></path><path d="M-490 -321C-490 -321 -422 84 262 211C726 338 794 743 794 743" stroke="currentColor" stroke-width="1.27" stroke-opacity="0.34400000000000003" opacity="0.45" pathLength="1" stroke-dashoffset="0px" stroke-dasharray="0.35px 1px"></path><path d="M-495 -327C-495 -327 -427 78 267 205C731 332 799 737 799 737" stroke="currentColor" stroke-width="1.3050000000000002" stroke-opacity="0.35600000000000004" opacity="0.45" pathLength="1" stroke-dashoffset="0px" stroke-dasharray="0.35px 1px"></path><path d="M-500 -333C-500 -333 -432 72 272 199C736 326 804 731 804 731" stroke="currentColor" stroke-width="1.34" stroke-opacity="0.36800000000000005" opacity="0.45" pathLength="1" stroke-dashoffset="0px" stroke-dasharray="0.35px 1px"></path><path d="M-505 -339C-505 -339 -437 66 277 193C741 320 809 725 809 725" stroke="currentColor" stroke-width="1.375" stroke-opacity="0.38" opacity="0.45" pathLength="1" stroke-dashoffset="0px" stroke-dasharray="0.35px 1px"></path><path d="M-510 -345C-510 -345 -442 60 282 187C746 314 814 719 814 719" stroke="currentColor" stroke-width="1.4100000000000001" stroke-opacity="0.392" opacity="0.45" pathLength="1" stroke-dashoffset="0px" stroke-dasharray="0.35px 1px"></path><path d="M-515 -351C-515 -351 -447 54 287 181C751 308 819 713 819 713" stroke="currentColor" stroke-width="1.445" stroke-opacity="0.404" opacity="0.45" pathLength="1" stroke-dashoffset="0px" stroke-dasharray="0.35px 1px"></path></svg>